<svg width="1050" height="532" viewBox="-50 -30 1050 532" fill="none" xmlns="http://www.w3.org/2000/svg">
<style>
  .tuna-body {
    transform-origin: 780px 250px;
    animation: body-swim 0.6s ease-in-out infinite;
  }
  .tail-fin {
    transform-origin: 158.7px 249px;
    animation: tail-swim 0.6s ease-in-out infinite;
  }
  .fin-pectoral-top {
    transform-origin: 461px 120px;
    animation: pectoral-top-swim 0.6s ease-in-out infinite;
  }
  .fin-pectoral-bottom {
    transform-origin: 471px 380px;
    animation: pectoral-bottom-swim 0.6s ease-in-out infinite;
  }

  @keyframes body-swim {
    0%, 100% {
      transform: rotate(-1.2deg);
    }
    50% {
      transform: rotate(1.2deg);
    }
  }

  @keyframes tail-swim {
    0%, 100% {
      transform: rotate(0deg);
    }
    25% {
      transform: rotate(-8deg);
    }
    50% {
      transform: rotate(0deg);
    }
    75% {
      transform: rotate(8deg);
    }
  }

  @keyframes pectoral-top-swim {
    0%, 100% {
      transform: rotate(0.8deg);
    }
    50% {
      transform: rotate(-0.8deg);
    }
  }

  @keyframes pectoral-bottom-swim {
    0%, 100% {
      transform: rotate(-0.8deg);
    }
    50% {
      transform: rotate(0.8deg);
    }
  }
</style>
<g class="tuna-body">
  <!-- Dorsal Fin (Top) -->
  <path d="M593 107.428L623.673 0C648.258 0 697.226 77.3976 721 107.428H593Z" fill="#064073"/>
  <!-- Ventral Fin (Bottom) -->
  <path d="M593 364.253L623.673 471.682C648.258 471.682 697.226 394.284 721 364.253H593Z" fill="#013B6F"/>
  <!-- Pectoral Fin (Top/Side) -->
  <path class="fin-pectoral-top" d="M381.114 183.682L361.566 73.6839C383.66 62.902 461.612 110.984 496.148 127.546L381.114 183.682Z" fill="#154D7E"/>
  <!-- Pectoral Fin (Bottom/Side) -->
  <path class="fin-pectoral-bottom" d="M391.114 317L371.566 426.998C393.66 437.78 471.612 389.698 506.148 373.136L391.114 317Z" fill="#013B6F"/>
  <!-- Main Body -->
  <path d="M848.391 281.093L950 267.881C942.809 302.146 858.883 346.083 828.156 361.728C827.102 362.267 826.049 362.78 824.976 363.267C800.568 374.552 775.816 384.272 750.841 392.479C684.708 414.177 591.795 408 524 408C371.577 384.266 323.133 303.956 97 248.905C509.742 105.306 521 70.9999 750.882 105.306C775.836 113.487 800.588 123.207 824.996 134.492C862.225 151.727 945.584 212.695 950 254.115C950 254.115 861.948 260.286 848.391 281.093Z" fill="url(#paint0_linear_9_72)"/>
  <!-- Eye -->
  <circle cx="796" cy="227" r="19" fill="#D9D9D9"/>
  <circle cx="794.5" cy="226.5" r="7.5" fill="#494949"/>
  <!-- Tail Fin Group -->
  <g class="tail-fin">
    <path d="M158.689 249.005H107.908C48.3122 249.007 95.5 140 0 88H50.7813C110.377 88 158.689 160.085 158.689 249.005Z" fill="#013C70"/>
    <path d="M158.689 249.008H107.908C48.3122 249.008 104.5 337.5 0 410.012H50.7813C110.377 410.012 158.689 337.928 158.689 249.008Z" fill="#013C70"/>
  </g>
</g>
<defs>
  <linearGradient id="paint0_linear_9_72" x1="524" y1="82" x2="516.808" y2="456.795" gradientUnits="userSpaceOnUse">
    <stop offset="0.25" stop-color="#003C70"/>
    <stop offset="0.451923" stop-color="#B9C75E"/>
    <stop offset="0.571251" stop-color="#BAD6EE"/>
    <stop offset="0.708997" stop-color="#BAD6EE"/>
    <stop offset="0.956731" stop-color="#5A5A5A"/>
  </linearGradient>
</defs>
</svg>
